<?xml version="1.0" encoding="utf-8"?>
<!-- Svg Vector Icons : http://www.onlinewebfonts.com/icon -->
<!DOCTYPE svg PUBLIC "-//W3C//DTD SVG 1.1//EN" "http://www.w3.org/Graphics/SVG/1.1/DTD/svg11.dtd">
<svg version="1.1" xmlns="http://www.w3.org/2000/svg" xmlns:xlink="http://www.w3.org/1999/xlink" x="0px" y="0px" viewBox="0 0 1000 1000" enable-background="new 0 0 1000 1000" xml:space="preserve">
<metadata> Svg Vector Icons : http://www.onlinewebfonts.com/icon </metadata>
<g><g transform="translate(0.000000,511.000000) scale(0.100000,-0.100000)"><path d="M4469.9,4952.6C3658.4,4738.9,3078,3993.9,3078,3162.2c0-427.4,179-895.2,464.9-1218.6c196.4-222.3,522.7-436,814.3-531.3c202.1-66.4,285.9-77.9,568.9-77.9c280.1,0,366.7,11.5,566,75.1c381.2,127.1,698.8,355.2,924.1,669.9c537.1,753.7,459.1,1732.6-190.6,2382.3C5757.8,4929.5,5093.6,5114.3,4469.9,4952.6z"/><path d="M2587.1,1051.3c-490.9-95.3-938.5-574.6-1036.7-1108.9c-17.3-92.4-31.8-438.9-31.8-771v-600.6l147.3,101.1c141.5,95.3,381.2,187.7,493.8,187.7c46.2,0,52,46.2,57.8,612.2l8.7,615.1l144.4,23.1c80.8,14.4,352.3,28.9,606.4,28.9c361,5.8,511.1-5.8,690.1-49.1c433.1-101.1,857.6-320.5,1163.7-603.5L4955-626.4l150.2,135.7c531.3,479.4,1137.7,646.8,2183,603.5L7756,95.5v-615.1v-612.2l138.6-20.2c144.4-20.2,418.7-135.7,502.5-210.8c49.1-43.3,52-17.3,52,545.8c0,323.4-14.4,667-31.7,759.5C8316.2,491.1,7868.6,959,7354.6,1054.2C7161.2,1088.9,2771.9,1088.9,2587.1,1051.3z"/><path d="M2812.3-323.2l-138.6-11.5v-444.7V-1227l112.6-72.2c248.3-153,444.7-415.8,554.4-736.4c89.5-262.8,92.4-687.3,5.8-967.4c-106.8-337.9-352.3-658.4-606.4-791.2c-60.6-31.8-66.4-52-66.4-297.5v-262.8l95.3,20.2c49.1,11.5,222.4,31.8,378.3,46.2C3771-4227.3,4389-4389,4816.4-4726.9c118.4-92.4,112.6-92.4,311.9,60.7c202.1,153,566,311.9,837.4,366.7c285.9,57.8,820.1,40.4,1111.7-28.9c95.3-26,181.9-43.3,196.3-46.2c11.6,0,20.2,130,20.2,288.8c0,285.9,0,288.8-80.8,329.2c-124.2,63.5-363.9,335-447.6,508.2c-127.1,265.7-173.3,499.6-155.9,808.5c23.1,450.5,199.2,814.3,519.8,1068.4l164.6,129.9v444.7v444.7l-482.2-17.3c-320.5-8.7-542.9-31.8-658.4-63.5c-407.2-112.6-765.2-378.3-1019.3-756.6l-121.3-179l-337.9,340.7c-300.3,300.3-372.5,358.1-606.4,473.6C3701.7-372.2,3245.5-288.5,2812.3-323.2z"/><path d="M2081.8-1397.4c-508.2-132.8-846.1-753.7-739.2-1354.3c118.4-664.2,606.4-1045.3,1134.9-889.4c228.1,66.4,424.5,251.2,563.1,531.3c109.7,216.6,109.7,222.4,109.7,566c0,410-54.9,589.1-257,834.5C2696.8-1466.7,2338.8-1331,2081.8-1397.4z"/><path d="M7597.2-1397.4c-502.5-129.9-837.4-730.6-745-1328.3c164.6-1054,1250.4-1302.4,1700.8-392.7c92.4,190.6,106.9,248.3,121.3,490.9c17.4,340.7-40.4,577.5-196.3,820.1c-167.5,259.9-369.6,389.8-652.6,418.7C7747.4-1380,7646.3-1385.8,7597.2-1397.4z"/></g></g>
</svg>